# Blender 5.0.1
# www.blender.org
mtllib 技能范围1.mtl
o 平面.002
v -74.193886 -18.858427 55.600307
v 13.638631 -18.858427 39.600597
v -63.542873 -18.858427 -18.745562
v -11.429619 -18.858427 -48.130596
v 77.102875 -18.858427 9.091762
v 57.504593 -18.858427 -33.862949
v -79.296844 -18.858427 22.457438
v -36.610256 -18.858427 56.000473
v 1.104507 -18.858427 -4.264992
v -40.643559 -18.858427 -41.432117
v 76.813225 -18.858427 -12.867091
v 24.381021 -18.858427 -45.572021
v 54.475243 -18.858427 24.815863
v -39.810280 -18.858427 7.741499
v 40.507225 -18.858427 -10.432693
v -74.193886 18.858423 55.600307
v 13.638631 18.858423 39.600597
v -63.542873 18.858423 -18.745562
v -11.429619 18.858423 -48.130596
v 77.102875 18.858423 9.091762
v 57.504593 18.858423 -33.862949
v -79.296844 18.858423 22.457438
v -36.610256 18.858423 56.000473
v 1.104507 18.858423 -4.264992
v -40.643559 18.858423 -41.432117
v 76.813225 18.858423 -12.867091
v 24.381021 18.858423 -45.572021
v 54.475243 18.858423 24.815863
v -39.810280 18.858423 7.741499
v 40.507225 18.858423 -10.432693
vn -0.0000 -1.0000 -0.0000
vn -0.0000 1.0000 -0.0000
vn 0.3103 -0.0000 0.9506
vn 0.3333 -0.0000 -0.9428
vn -0.9341 -0.0000 -0.3571
vn -0.7038 -0.0000 -0.7104
vn 0.0713 -0.0000 -0.9975
vn -0.9884 -0.0000 0.1522
vn 0.9999 -0.0000 -0.0132
vn 0.3404 -0.0000 0.9403
vn -0.0106 -0.0000 0.9999
vn 0.7361 -0.0000 -0.6769
vn -0.2235 -0.0000 -0.9747
vn 0.5707 -0.0000 0.8212
vt 0.000000 0.000000
vt 0.000000 0.500000
vt 0.486111 0.500000
vt 0.500000 0.000000
vt 0.861111 0.500000
vt 1.000000 0.000000
vt 0.500000 1.000000
vt 1.000000 1.000000
vt 0.000000 1.000000
vt 1.000000 1.000000
vt 0.986111 0.500000
vt 1.000000 0.000000
vt 1.000000 0.500000
s 0
f 1/1/1 7/2/1 14/3/1 8/4/1
f 8/4/1 14/3/1 9/5/1 2/6/1
f 14/3/1 10/7/1 4/8/1 9/5/1
f 7/2/1 3/9/1 10/7/1 14/3/1
f 4/8/1 12/10/1 15/11/1 9/5/1
f 9/5/1 15/11/1 13/12/1 2/6/1
f 15/11/1 11/13/1 5/12/1 13/12/1
f 12/10/1 6/10/1 11/13/1 15/11/1
f 16/1/2 23/4/2 29/3/2 22/2/2
f 23/4/2 17/6/2 24/5/2 29/3/2
f 29/3/2 24/5/2 19/8/2 25/7/2
f 22/2/2 29/3/2 25/7/2 18/9/2
f 19/8/2 24/5/2 30/11/2 27/10/2
f 24/5/2 17/6/2 28/12/2 30/11/2
f 30/11/2 28/12/2 20/12/2 26/13/2
f 27/10/2 30/11/2 26/13/2 21/10/2
f 8/4/3 2/6/3 17/6/3 23/4/3
f 6/10/4 12/10/4 27/10/4 21/10/4
f 3/9/5 7/2/5 22/2/5 18/9/5
f 10/7/6 3/9/6 18/9/6 25/7/6
f 12/10/7 4/8/7 19/8/7 27/10/7
f 7/2/8 1/1/8 16/1/8 22/2/8
f 5/12/9 11/13/9 26/13/9 20/12/9
f 2/6/10 13/12/10 28/12/10 17/6/10
f 1/1/11 8/4/11 23/4/11 16/1/11
f 11/13/12 6/10/12 21/10/12 26/13/12
f 4/8/13 10/7/13 25/7/13 19/8/13
f 13/12/14 5/12/14 20/12/14 28/12/14
