# Blender 5.0.1
# www.blender.org
mtllib 技能范围2.mtl
o 平面.003
v -16.476265 -18.858427 71.504646
v 86.273300 -18.858427 39.886288
v -50.901257 -18.858427 -26.144995
v -18.895782 -18.858427 -85.245964
v -45.962959 -18.858427 30.943014
v 47.613476 -18.858427 75.987617
v 45.962955 -18.858427 -30.943029
v -47.613483 -18.858427 -75.987625
v -0.000002 -18.858427 0.000000
v -16.476265 18.858423 71.504646
v 86.273300 18.858423 39.886288
v -50.901257 18.858423 -26.144995
v -18.895782 18.858423 -85.245964
v -45.962959 18.858423 30.943014
v 47.613476 18.858423 75.987617
v 45.962955 18.858423 -30.943029
v -47.613483 18.858423 -75.987625
v -0.000002 18.858423 0.000000
vn -0.0000 -1.0000 -0.0000
vn -0.0000 1.0000 -0.0000
vn 0.8691 -0.0000 -0.4946
vn -0.0698 -0.0000 0.9976
vn -0.9963 -0.0000 0.0862
vn -0.9978 -0.0000 -0.0658
vn 0.6420 -0.0000 -0.7667
vn 0.6825 -0.0000 0.7309
vn -0.8089 -0.0000 0.5880
vn -0.3068 -0.0000 -0.9518
vt 0.000000 0.000000
vt 0.000000 0.500000
vt 0.500000 0.500000
vt 0.500000 0.000000
vt 1.000000 0.500000
vt 1.000000 0.000000
vt 0.500000 1.000000
vt 1.000000 1.000000
vt 0.000000 1.000000
s 0
f 1/1/1 5/2/1 9/3/1 6/4/1
f 6/4/1 9/3/1 7/5/1 2/6/1
f 9/3/1 8/7/1 4/8/1 7/5/1
f 5/2/1 3/9/1 8/7/1 9/3/1
f 10/1/2 15/4/2 18/3/2 14/2/2
f 15/4/2 11/6/2 16/5/2 18/3/2
f 18/3/2 16/5/2 13/8/2 17/7/2
f 14/2/2 18/3/2 17/7/2 12/9/2
f 2/6/3 7/5/3 16/5/3 11/6/3
f 1/1/4 6/4/4 15/4/4 10/1/4
f 3/9/5 5/2/5 14/2/5 12/9/5
f 8/7/6 3/9/6 12/9/6 17/7/6
f 7/5/7 4/8/7 13/8/7 16/5/7
f 6/4/8 2/6/8 11/6/8 15/4/8
f 5/2/9 1/1/9 10/1/9 14/2/9
f 4/8/10 8/7/10 17/7/10 13/8/10
