# Blender 5.0.1
# www.blender.org
mtllib 导弹.mtl
o Cube
v 0.624456 6.860633 -0.624456
v 0.624456 -2.848507 -0.624456
v 0.624456 6.860633 0.624456
v 0.624456 -2.848507 0.624456
v -0.624456 6.860633 -0.624456
v -0.624456 -2.848507 -0.624456
v -0.624456 6.860633 0.624456
v -0.624456 -2.848507 0.624456
v 0.624456 1.346646 -0.624456
v -0.624456 1.346646 0.624456
v 0.624456 1.346646 0.624456
v -0.624456 1.346646 -0.624456
v -1.175162 -2.334608 -1.175162
v -1.175162 -2.334608 1.175162
v 1.175162 -2.334608 -1.175162
v 1.175162 2.473158 -1.175162
v 1.175162 2.473158 1.175162
v 1.175162 -2.334608 1.175162
v -1.175162 2.473158 -1.175162
v -1.175162 2.473158 1.175162
v -0.624456 1.860714 0.624456
v 0.624456 1.860714 -0.624456
v 0.624456 1.860714 0.624456
v -0.624456 1.860714 -0.624456
v 1.175162 2.137991 -1.175162
v 1.175162 2.137991 1.175162
v -1.175162 2.137991 -1.175162
v -1.175162 2.137991 1.175162
v 0.635557 -0.193976 0.635557
v 0.635557 -0.002641 0.635557
v 0.635557 -0.193976 -0.635557
v 0.635557 -0.002641 -0.635557
v 1.175162 0.078584 -1.175162
v 1.175162 -0.275200 -1.175162
v 1.175162 0.078584 1.175162
v 1.175162 -0.275200 1.175162
v -1.175162 -0.275200 -1.175162
v -1.175162 0.078584 -1.175162
v -1.175162 -0.275200 1.175162
v -1.175162 0.078584 1.175162
v -0.635557 -0.193976 -0.635557
v -0.635557 -0.002641 -0.635557
v -0.635557 -0.193976 0.635557
v -0.635557 -0.002641 0.635557
v 0.833519 1.182669 0.833519
v 0.833519 1.033906 0.833519
v 0.833519 1.033906 -0.833519
v 0.833519 1.182669 -0.833519
v 1.175162 1.213157 -1.175162
v 1.175162 1.003418 -1.175162
v 1.175162 1.003418 1.175162
v 1.175162 1.213157 1.175162
v -1.175162 1.213157 -1.175162
v -1.175162 1.003418 -1.175162
v -1.175162 1.003418 1.175162
v -1.175162 1.213157 1.175162
v -0.833519 1.182669 -0.833519
v -0.833519 1.033906 -0.833519
v -0.833519 1.033906 0.833519
v -0.833519 1.182669 0.833519
v 1.794576 -0.664109 -0.326403
v 1.794576 -0.664109 0.326403
v 1.794576 1.363311 0.326403
v 1.794576 1.363311 -0.326403
v -1.794576 -0.664109 0.326403
v -1.794576 -0.664109 -0.326403
v -1.794576 1.363311 -0.326403
v -1.794576 1.363311 0.326403
v -0.624456 -2.848507 0.255711
v -0.624456 -2.848507 -0.255711
v 0.624456 6.860633 0.255711
v 0.624456 6.860633 -0.255711
v -0.624456 6.860633 0.255711
v -0.624456 6.860633 -0.255711
v 0.624456 -2.848507 0.255711
v 0.624456 -2.848507 -0.255711
v 0.624456 1.346646 0.255711
v 0.624456 1.346646 -0.255711
v -0.624456 1.346646 -0.255711
v -0.624456 1.346646 0.255711
v -1.175162 -2.334608 -0.255711
v -1.175162 -2.334608 0.255711
v 0.635557 -0.002641 0.255711
v 0.635557 -0.002641 -0.255711
v 1.175162 -2.334608 0.255711
v 1.175162 -2.334608 -0.255711
v 1.175162 2.473158 0.255711
v 1.175162 2.473158 -0.255711
v -1.175162 2.473158 0.255711
v -1.175162 2.473158 -0.255711
v 0.624456 1.860714 -0.255711
v 0.624456 1.860714 0.255711
v -0.624456 1.860714 0.255711
v -0.624456 1.860714 -0.255711
v -1.175162 2.137991 0.255711
v -1.175162 2.137991 -0.255711
v 1.175162 2.137991 -0.255711
v 1.175162 2.137991 0.255711
v 0.635557 -0.193976 -0.255711
v 0.635557 -0.193976 0.255711
v -0.635557 -0.193976 0.255711
v -0.635557 -0.193976 -0.255711
v -0.635557 -0.002641 0.255711
v -0.635557 -0.002641 -0.255711
v 1.175162 0.078584 0.255711
v 1.175162 0.078584 -0.255711
v 1.175162 -0.275200 -0.255711
v 1.175162 -0.275200 0.255711
v -1.175162 0.078584 -0.255711
v -1.175162 0.078584 0.255711
v -1.175162 -0.275200 0.255711
v -1.175162 -0.275200 -0.255711
v 0.833519 1.033906 -0.255711
v 0.833519 1.033906 0.255711
v -0.833519 1.182669 -0.255711
v -0.833519 1.182669 0.255711
v 0.833519 1.182669 -0.255711
v 0.833519 1.182669 0.255711
v -0.833519 1.033906 0.255711
v -0.833519 1.033906 -0.255711
v -1.175162 1.213157 -0.255711
v -1.175162 1.213157 0.255711
v -1.175162 1.003418 0.255711
v -1.175162 1.003418 -0.255711
v 1.175162 1.213157 0.255711
v 1.175162 1.213157 -0.255711
v 1.175162 1.003418 -0.255711
v 1.175162 1.003418 0.255711
v -0.624456 -4.576023 0.255711
v -0.624456 -4.576023 -0.255711
v -2.193007 -4.062124 -0.255711
v -2.193007 -4.062124 0.255711
v 2.193007 -4.062124 0.255711
v 2.193007 -4.062124 -0.255711
v 0.624456 -4.576023 0.255711
v 0.624456 -4.576023 -0.255711
v -0.295302 -6.181093 0.120925
v -0.295302 -6.181093 -0.120925
v -1.037064 -5.938072 -0.120925
v -1.037064 -5.938072 0.120925
v 1.037064 -5.938072 0.120925
v 1.037064 -5.938072 -0.120925
v 0.295302 -6.181093 0.120925
v 0.295302 -6.181093 -0.120925
v 0.294426 -2.848507 -0.624456
v -0.294426 -2.848507 -0.624456
v 0.223917 7.450155 0.624456
v -0.223917 7.450155 0.624456
v -0.294426 -2.848507 0.624456
v 0.294426 -2.848507 0.624456
v -0.223917 7.450155 -0.624456
v 0.223917 7.450155 -0.624456
v 0.255153 1.346646 -0.624456
v -0.255153 1.346646 -0.624456
v -0.255153 1.346646 0.624456
v 0.255153 1.346646 0.624456
v 0.294117 -2.334608 -1.175162
v -0.294117 -2.334608 -1.175162
v 0.292907 -0.193976 0.635557
v -0.292907 -0.193976 0.635557
v -0.294117 -2.334608 1.175162
v 0.294117 -2.334608 1.175162
v -0.265281 2.473158 -1.175162
v 0.265281 2.473158 -1.175162
v -0.265281 2.473158 1.175162
v 0.265281 2.473158 1.175162
v -0.241723 1.860714 -0.624456
v 0.241723 1.860714 -0.624456
v 0.241723 1.860714 0.624456
v -0.241723 1.860714 0.624456
v 0.291908 -0.002641 -0.635557
v -0.291908 -0.002641 -0.635557
v 0.272917 2.137991 1.175162
v -0.272917 2.137991 1.175162
v -0.272917 2.137991 -1.175162
v 0.272917 2.137991 -1.175162
v -0.291908 -0.002641 0.635557
v 0.291908 -0.002641 0.635557
v -0.292907 -0.193976 -0.635557
v 0.292907 -0.193976 -0.635557
v 0.290547 0.078584 -1.175162
v -0.290547 0.078584 -1.175162
v -0.293624 -0.275200 -1.175162
v 0.293624 -0.275200 -1.175162
v -0.290547 0.078584 1.175162
v 0.290547 0.078584 1.175162
v 0.293624 -0.275200 1.175162
v -0.293624 -0.275200 1.175162
v 0.283006 1.182669 -0.833519
v -0.283006 1.182669 -0.833519
v 0.286267 1.033906 0.833519
v -0.286267 1.033906 0.833519
v -0.283006 1.182669 0.833519
v 0.283006 1.182669 0.833519
v -0.286267 1.033906 -0.833519
v 0.286267 1.033906 -0.833519
v -0.278672 1.213157 1.175162
v 0.278672 1.213157 1.175162
v 0.288716 1.003418 1.175162
v -0.288716 1.003418 1.175162
v 0.278672 1.213157 -1.175162
v -0.278672 1.213157 -1.175162
v -0.288716 1.003418 -1.175162
v 0.288716 1.003418 -1.175162
v -0.294574 -2.848507 -0.255711
v 0.294574 -2.848507 -0.255711
v 0.294574 -2.848507 0.255711
v -0.294574 -2.848507 0.255711
v 0.219671 7.456405 -0.255711
v -0.219671 7.456405 -0.255711
v -0.219671 7.456405 0.255711
v 0.219671 7.456405 0.255711
v 0.293624 -0.275200 1.175162
v -0.293624 -0.275200 1.175162
v -0.294117 -2.334608 1.175162
v 0.294117 -2.334608 1.175162
v -0.293624 -0.275200 -1.175162
v 0.293624 -0.275200 -1.175162
v 0.294117 -2.334608 -1.175162
v -0.294117 -2.334608 -1.175162
v 0.293624 -1.187508 1.777055
v -0.293624 -1.187508 1.777055
v -0.294117 -3.246915 1.777055
v 0.294117 -3.246915 1.777055
v -0.293624 -1.187508 -1.777055
v 0.293624 -1.187508 -1.777055
v 0.294117 -3.246915 -1.777055
v -0.294117 -3.246915 -1.777055
vn 0.7810 0.6245 -0.0000
vn -0.9496 -0.3133 -0.0000
vn 1.0000 -0.0000 -0.0000
vn -0.7810 0.6245 -0.0000
vn 0.9496 -0.3133 -0.0000
vn -0.1134 -0.0000 -0.9936
vn 0.1134 -0.0000 -0.9936
vn -1.0000 -0.0000 -0.0000
vn 0.1134 -0.0000 0.9936
vn -0.1134 -0.0000 0.9936
vn 0.0889 0.9960 -0.0000
vn -0.0889 0.9960 -0.0000
vn 0.0889 -0.9960 -0.0000
vn -0.0889 -0.9960 -0.0000
vn -0.1488 0.9889 -0.0000
vn 0.1488 0.9889 -0.0000
vn 0.1488 -0.9889 -0.0000
vn -0.1488 -0.9889 -0.0000
vn -0.8984 0.4392 -0.0000
vn -0.0000 -0.0000 -1.0000
vn 0.8984 0.4392 -0.0000
vn -0.6823 -0.7311 -0.0000
vn 0.6823 -0.7311 -0.0000
vn 0.8514 -0.5246 -0.0000
vn -0.0294 -0.0896 -0.9955
vn -0.8616 0.5076 -0.0000
vn 0.8616 0.5076 -0.0000
vn -0.0000 -0.0000 1.0000
vn -0.3113 -0.9503 -0.0000
vn 0.3113 -0.9503 -0.0000
vn 0.9796 0.2009 -0.0000
vn 0.0294 -0.0896 0.9955
vn -0.9796 0.2009 -0.0000
vn -0.0294 -0.0896 0.9955
vn -0.8514 -0.5246 -0.0000
vn 0.0294 -0.0896 -0.9955
vn -0.0000 0.9960 -0.0889
vn -0.0000 -0.9960 -0.0889
vn -0.0000 -0.9960 0.0889
vn -0.0000 0.9960 0.0889
vn -0.0000 1.0000 -0.0000
vn -0.0000 0.9889 0.1488
vn -0.0000 0.9889 -0.1488
vn -0.0000 -0.9889 -0.1488
vn -0.0000 -0.9889 0.1488
vn -0.0000 -0.7311 0.6823
vn -0.0000 0.4392 -0.8984
vn -0.0000 -0.7311 -0.6823
vn -0.0000 0.4392 0.8984
vn -0.0000 -1.0000 -0.0000
vn -0.0000 0.9999 0.0169
vn -0.0000 0.9999 -0.0169
vn -0.8271 0.5620 -0.0000
vn 0.8271 0.5620 -0.0000
vn -0.0000 -0.5507 -0.8347
vn -0.0000 0.5507 -0.8347
vn -0.0000 0.5507 0.8347
vn -1.0000 0.0002 -0.0004
vn 1.0000 0.0002 -0.0004
vn 1.0000 0.0002 0.0004
vn -1.0000 0.0002 0.0004
vn -0.0000 -0.5507 0.8347
vt 0.448637 0.597800
vt 0.448637 0.652200
vt 0.433411 0.652200
vt 0.433411 0.597800
vt 0.448637 0.097800
vt 0.448637 0.152200
vt 0.433411 0.152200
vt 0.433411 0.097800
vt 0.429958 0.152200
vt 0.414731 0.152200
vt 0.414731 0.097800
vt 0.429958 0.097800
vt 0.429958 0.652200
vt 0.414731 0.652200
vt 0.414731 0.597800
vt 0.429958 0.597800
vt 0.429958 0.586652
vt 0.429958 0.663348
vt 0.433411 0.663348
vt 0.433411 0.586652
vt 0.429958 0.086652
vt 0.429958 0.163348
vt 0.408906 0.152200
vt 0.375000 0.152200
vt 0.375000 0.097800
vt 0.408906 0.097800
vt 0.433411 0.163348
vt 0.433411 0.086652
vt 0.408906 0.652200
vt 0.375000 0.652200
vt 0.375000 0.597800
vt 0.408906 0.597800
vt 0.408906 0.074707
vt 0.408906 0.175293
vt 0.414731 0.175293
vt 0.414731 0.074707
vt 0.408906 0.574707
vt 0.408906 0.675293
vt 0.414731 0.675293
vt 0.414731 0.574707
vt 0.470083 0.176187
vt 0.454156 0.176187
vt 0.454156 0.073813
vt 0.470083 0.073813
vt 0.470083 0.676187
vt 0.454156 0.676187
vt 0.454156 0.573813
vt 0.470083 0.573813
vt 0.454156 0.652200
vt 0.454156 0.597800
vt 0.454156 0.152200
vt 0.454156 0.097800
vt 0.125000 0.573813
vt 0.125000 0.676187
vt 0.375000 0.573813
vt 0.625000 0.676187
vt 0.625000 0.573813
vt 0.625000 0.176187
vt 0.625000 0.073813
vt 0.125000 0.500000
vt 0.125000 0.597800
vt 0.125000 0.750000
vt 0.125000 0.652200
vt 0.470083 0.500000
vt 0.625000 0.500000
vt 0.625000 0.750000
vt 0.470083 0.750000
vt 0.625000 0.250000
vt 0.470084 0.250000
vt 0.470083 0.000000
vt 0.625000 0.000000
vt 0.375000 0.500000
vt 0.375000 0.750000
vt 0.375000 0.676187
vt 0.454156 0.750000
vt 0.454156 0.500000
vt 0.454156 0.250000
vt 0.454156 0.000000
vt 0.375000 0.000000
vt 0.408906 0.000000
vt 0.408906 0.250000
vt 0.375000 0.250000
vt 0.414731 0.750000
vt 0.414731 0.500000
vt 0.408906 0.500000
vt 0.408906 0.750000
vt 0.448637 0.500000
vt 0.448637 0.750000
vt 0.448637 0.250000
vt 0.448637 0.000000
vt 0.433411 0.250000
vt 0.433411 0.000000
vt 0.433411 0.750000
vt 0.433411 0.500000
vt 0.414731 0.000000
vt 0.414731 0.250000
vt 0.429958 0.750000
vt 0.429958 0.500000
vt 0.429958 0.250000
vt 0.429958 0.000000
vt 0.429958 0.905710
vt 0.414731 0.905905
vt 0.414731 0.844095
vt 0.429958 0.844290
vt 0.448637 0.904030
vt 0.433411 0.904642
vt 0.433411 0.845358
vt 0.448637 0.845970
vt 0.429958 0.405710
vt 0.414731 0.405905
vt 0.414731 0.344095
vt 0.429958 0.344290
vt 0.448637 0.404030
vt 0.433411 0.404642
vt 0.433411 0.345358
vt 0.448637 0.345970
vt 0.429958 0.332069
vt 0.429958 0.417931
vt 0.433411 0.417442
vt 0.433411 0.332558
vt 0.433411 0.917442
vt 0.433411 0.832559
vt 0.429958 0.832069
vt 0.429958 0.917931
vt 0.281285 0.500000
vt 0.218715 0.500000
vt 0.408906 0.906232
vt 0.375000 0.906285
vt 0.408906 0.843768
vt 0.408906 0.817392
vt 0.408906 0.932608
vt 0.408906 0.343768
vt 0.408906 0.317392
vt 0.408906 0.432608
vt 0.408906 0.406232
vt 0.414731 0.432412
vt 0.414731 0.317588
vt 0.414731 0.932412
vt 0.414731 0.817588
vt 0.470083 0.923387
vt 0.454156 0.926075
vt 0.454156 0.823925
vt 0.470083 0.826613
vt 0.470083 0.423387
vt 0.454156 0.426075
vt 0.454156 0.323925
vt 0.470083 0.326613
vt 0.308937 0.750000
vt 0.281285 0.750000
vt 0.218715 0.750000
vt 0.191063 0.750000
vt 0.454156 0.903217
vt 0.454156 0.846783
vt 0.191063 0.500000
vt 0.308937 0.500000
vt 0.454156 0.403217
vt 0.454156 0.346783
vt 0.625000 0.419822
vt 0.625000 0.330178
vt 0.625000 0.919822
vt 0.625000 0.830178
vt 0.793972 0.573813
vt 0.793972 0.676187
vt 0.706028 0.676187
vt 0.706028 0.573813
vt 0.308966 0.573813
vt 0.308966 0.676187
vt 0.191034 0.676187
vt 0.191034 0.573813
vt 0.794822 0.750000
vt 0.705178 0.750000
vt 0.794822 0.500000
vt 0.705178 0.500000
vt 0.875000 0.676187
vt 0.875000 0.750000
vt 0.625000 1.000000
vt 0.470083 1.000000
vt 0.875000 0.500000
vt 0.875000 0.573813
vt 0.454156 1.000000
vt 0.375000 0.343715
vt 0.375000 0.406285
vt 0.408906 1.000000
vt 0.414731 1.000000
vt 0.375000 0.843715
vt 0.375000 1.000000
vt 0.448637 1.000000
vt 0.433411 1.000000
vt 0.429958 1.000000
s 0
usemtl Material
f 97/1/1 98/2/1 63/2/1 64/1/1
f 125/3/2 126/4/2 61/4/2 62/3/2
f 63/2/3 62/3/3 61/4/3 64/1/3
f 95/5/4 96/6/4 67/6/4 68/5/4
f 121/7/5 122/8/5 65/8/5 66/7/5
f 126/4/6 97/1/6 64/1/6 61/4/6
f 96/6/7 121/7/7 66/7/7 67/6/7
f 67/6/8 66/7/8 65/8/8 68/5/8
f 124/9/8 109/10/8 110/11/8 123/12/8
f 122/8/9 95/5/9 68/5/9 65/8/9
f 98/2/10 125/3/10 62/3/10 63/2/10
f 128/13/3 105/14/3 106/15/3 127/16/3
f 127/16/11 113/17/11 114/18/11 128/13/11
f 118/19/3 114/18/3 113/17/3 117/20/3
f 123/12/12 119/21/12 120/22/12 124/9/12
f 125/3/13 118/19/13 117/20/13 126/4/13
f 112/23/8 81/24/8 82/25/8 111/26/8
f 121/7/14 115/27/14 116/28/14 122/8/14
f 115/27/8 120/22/8 119/21/8 116/28/8
f 108/29/3 85/30/3 86/31/3 107/32/3
f 111/26/15 101/33/15 102/34/15 112/23/15
f 104/35/8 102/34/8 101/33/8 103/36/8
f 107/32/16 99/37/16 100/38/16 108/29/16
f 105/14/17 83/39/17 84/40/17 106/15/17
f 83/39/3 100/38/3 99/37/3 84/40/3
f 109/10/18 104/35/18 103/36/18 110/11/18
f 94/41/8 79/42/8 80/43/8 93/44/8
f 92/45/3 77/46/3 78/47/3 91/48/3
f 77/46/19 87/49/19 88/50/19 78/47/19
f 90/51/8 96/6/8 95/5/8 89/52/8
f 87/49/3 98/2/3 97/1/3 88/50/3
f 70/53/3 69/54/3 129/54/3 130/53/3
f 76/55/20 86/31/20 134/31/20 136/55/20
f 79/42/21 90/51/21 89/52/21 80/43/21
f 71/56/3 92/45/3 91/48/3 72/57/3
f 74/58/8 94/41/8 93/44/8 73/59/8
f 6/60/22 70/53/22 81/61/22 13/60/22
f 69/54/22 8/62/22 14/62/22 82/63/22
f 22/64/3 1/65/3 72/57/3 91/48/3
f 92/45/3 71/56/3 3/66/3 23/67/3
f 94/41/8 74/58/8 5/68/8 24/69/8
f 21/70/8 7/71/8 73/59/8 93/44/8
f 76/55/23 2/72/23 15/72/23 86/31/23
f 4/73/23 75/74/23 85/30/23 18/73/23
f 77/46/3 92/45/3 23/67/3 11/75/3
f 9/76/19 78/47/19 88/50/19 16/76/19
f 77/46/19 11/75/19 17/75/19 87/49/19
f 9/76/3 22/64/3 91/48/3 78/47/3
f 79/42/8 94/41/8 24/69/8 12/77/8
f 10/78/21 80/43/21 89/52/21 20/78/21
f 79/42/21 12/77/21 19/77/21 90/51/21
f 10/78/8 21/70/8 93/44/8 80/43/8
f 14/79/8 39/80/8 111/26/8 82/25/8
f 81/24/8 112/23/8 37/81/8 13/82/8
f 105/14/17 35/83/17 30/83/17 83/39/17
f 32/84/3 84/40/3 99/37/3 31/85/3
f 83/39/3 30/83/3 29/86/3 100/38/3
f 33/84/17 106/15/17 84/40/17 32/84/17
f 15/72/3 34/85/3 107/32/3 86/31/3
f 85/30/3 108/29/3 36/86/3 18/73/3
f 25/87/3 16/76/3 88/50/3 97/1/3
f 98/2/3 87/49/3 17/75/3 26/88/3
f 96/6/8 90/51/8 19/77/8 27/89/8
f 28/90/8 20/78/8 89/52/8 95/5/8
f 121/7/8 96/6/8 27/89/8 53/91/8
f 56/92/8 28/90/8 95/5/8 122/8/8
f 125/3/3 98/2/3 26/88/3 52/93/3
f 49/94/3 25/87/3 97/1/3 126/4/3
f 36/86/16 108/29/16 100/38/16 29/86/16
f 107/32/16 34/85/16 31/85/16 99/37/16
f 44/95/8 103/36/8 101/33/8 43/80/8
f 37/81/15 112/23/15 102/34/15 41/81/15
f 111/26/15 39/80/15 43/80/15 101/33/15
f 104/35/8 42/96/8 41/81/8 102/34/8
f 40/95/18 110/11/18 103/36/18 44/95/18
f 109/10/18 38/96/18 42/96/18 104/35/18
f 105/14/3 128/13/3 51/97/3 35/83/3
f 33/84/3 50/98/3 127/16/3 106/15/3
f 109/10/8 124/9/8 54/99/8 38/96/8
f 40/95/8 55/100/8 123/12/8 110/11/8
f 48/94/3 117/20/3 113/17/3 47/98/3
f 51/97/11 128/13/11 114/18/11 46/97/11
f 127/16/11 50/98/11 47/98/11 113/17/11
f 118/19/3 45/93/3 46/97/3 114/18/3
f 121/7/14 53/91/14 57/91/14 115/27/14
f 60/92/8 116/28/8 119/21/8 59/100/8
f 115/27/8 57/91/8 58/99/8 120/22/8
f 56/92/14 122/8/14 116/28/14 60/92/14
f 49/94/13 126/4/13 117/20/13 48/94/13
f 125/3/13 52/93/13 45/93/13 118/19/13
f 54/99/12 124/9/12 120/22/12 58/99/12
f 123/12/12 55/100/12 59/100/12 119/21/12
f 134/31/24 133/30/24 141/30/24 142/31/24
f 131/61/25 130/53/25 138/53/25 139/61/25
f 81/61/20 70/53/20 130/53/20 131/61/20
f 82/25/26 81/24/26 131/24/26 132/25/26
f 86/31/27 85/30/27 133/30/27 134/31/27
f 85/30/28 75/74/28 135/74/28 133/30/28
f 75/74/8 76/55/8 136/55/8 135/74/8
f 69/54/28 82/63/28 132/63/28 129/54/28
f 137/54/29 140/63/29 139/61/29 138/53/29
f 144/55/30 142/31/30 141/30/30 143/74/30
f 130/53/31 129/54/31 137/54/31 138/53/31
f 133/30/32 135/74/32 143/74/32 141/30/32
f 135/74/33 136/55/33 144/55/33 143/74/33
f 129/54/34 132/63/34 140/63/34 137/54/34
f 132/25/35 131/24/35 139/24/35 140/25/35
f 136/55/36 134/31/36 142/31/36 144/55/36
f 200/101/28 185/102/28 186/103/28 199/104/28
f 174/105/28 197/106/28 198/107/28 173/108/28
f 204/109/20 181/110/20 182/111/20 203/112/20
f 176/113/20 201/114/20 202/115/20 175/116/20
f 203/112/37 195/117/37 196/118/37 204/109/37
f 201/114/38 189/119/38 190/120/38 202/115/38
f 197/106/39 193/121/39 194/122/39 198/107/39
f 199/104/40 191/123/40 192/124/40 200/101/40
f 193/121/28 192/124/28 191/123/28 194/122/28
f 157/125/41 158/126/41 220/126/41 219/125/41
f 189/119/20 196/118/20 195/117/20 190/120/20
f 188/127/41 161/128/41 215/128/41 214/127/41
f 187/129/42 159/130/42 160/131/42 188/127/42
f 183/132/43 179/133/43 180/134/43 184/135/43
f 181/110/44 171/136/44 172/137/44 182/111/44
f 171/136/20 180/134/20 179/133/20 172/137/20
f 185/102/45 177/138/45 178/139/45 186/103/45
f 177/138/28 160/131/28 159/130/28 178/139/28
f 170/140/28 155/141/28 156/142/28 169/143/28
f 168/144/20 153/145/20 154/146/20 167/147/20
f 150/148/46 162/149/46 161/150/46 149/151/46
f 155/141/47 165/152/47 166/153/47 156/142/47
f 146/154/48 158/126/48 157/125/48 145/155/48
f 165/152/28 174/105/28 173/108/28 166/153/28
f 164/156/20 176/113/20 175/116/20 163/157/20
f 153/145/49 164/156/49 163/157/49 154/146/49
f 152/158/20 168/144/20 167/147/20 151/159/20
f 148/160/28 170/140/28 169/143/28 147/161/28
f 210/162/41 211/163/41 212/164/41 209/165/41
f 206/166/50 207/167/50 208/168/50 205/169/50
f 207/167/50 150/148/50 149/151/50 208/168/50
f 145/155/50 206/166/50 205/169/50 146/154/50
f 211/163/51 148/170/51 147/171/51 212/164/51
f 151/172/52 210/162/52 209/165/52 152/173/52
f 6/60/50 146/154/50 205/169/50 70/53/50
f 146/154/48 6/60/48 13/60/48 158/126/48
f 145/155/50 2/72/50 76/55/50 206/166/50
f 2/72/48 145/155/48 157/125/48 15/72/48
f 211/163/53 73/174/53 7/175/53 148/170/53
f 170/140/28 148/160/28 7/176/28 21/177/28
f 71/56/54 212/164/54 147/171/54 3/66/54
f 23/67/28 3/66/28 147/161/28 169/143/28
f 207/167/50 75/74/50 4/73/50 150/148/50
f 150/148/46 4/73/46 18/73/46 162/149/46
f 69/54/50 208/168/50 149/151/50 8/62/50
f 8/62/46 149/151/46 161/150/46 14/62/46
f 1/65/54 152/173/54 209/165/54 72/57/54
f 168/144/20 152/158/20 1/65/20 22/64/20
f 151/172/53 5/178/53 74/179/53 210/162/53
f 24/69/20 5/68/20 151/159/20 167/147/20
f 153/145/20 168/144/20 22/64/20 9/76/20
f 12/77/49 154/146/49 163/157/49 19/77/49
f 153/145/49 9/76/49 16/76/49 164/156/49
f 12/77/20 24/69/20 167/147/20 154/146/20
f 155/141/28 170/140/28 21/177/28 10/180/28
f 11/75/47 156/142/47 166/153/47 17/75/47
f 155/141/47 10/180/47 20/180/47 165/152/47
f 11/75/28 23/67/28 169/143/28 156/142/28
f 13/82/20 37/81/20 183/132/20 158/181/20
f 157/182/20 184/135/20 34/85/20 15/72/20
f 30/83/28 178/139/28 159/130/28 29/86/28
f 39/183/42 188/127/42 160/131/42 43/183/42
f 187/129/42 36/86/42 29/86/42 159/130/42
f 177/138/28 44/184/28 43/183/28 160/131/28
f 18/73/28 36/86/28 187/129/28 162/185/28
f 161/128/28 188/127/28 39/183/28 14/186/28
f 176/113/20 164/156/20 16/76/20 25/87/20
f 27/89/20 19/77/20 163/157/20 175/116/20
f 26/88/28 17/75/28 166/153/28 173/108/28
f 174/105/28 165/152/28 20/180/28 28/187/28
f 181/110/44 33/84/44 32/84/44 171/136/44
f 42/96/20 172/137/20 179/133/20 41/81/20
f 171/136/20 32/84/20 31/85/20 180/134/20
f 38/96/44 182/111/44 172/137/44 42/96/44
f 197/106/28 174/105/28 28/187/28 56/188/28
f 52/93/28 26/88/28 173/108/28 198/107/28
f 201/114/20 176/113/20 25/87/20 49/94/20
f 53/91/20 27/89/20 175/116/20 202/115/20
f 185/102/45 40/184/45 44/184/45 177/138/45
f 35/83/45 186/103/45 178/139/45 30/83/45
f 34/85/43 184/135/43 180/134/43 31/85/43
f 183/132/43 37/81/43 41/81/43 179/133/43
f 181/110/20 204/109/20 50/98/20 33/84/20
f 38/96/20 54/99/20 203/112/20 182/111/20
f 185/102/28 200/101/28 55/189/28 40/184/28
f 35/83/28 51/97/28 199/104/28 186/103/28
f 201/114/38 49/94/38 48/94/38 189/119/38
f 57/91/20 190/120/20 195/117/20 58/99/20
f 189/119/20 48/94/20 47/98/20 196/118/20
f 53/91/38 202/115/38 190/120/38 57/91/38
f 45/93/28 194/122/28 191/123/28 46/97/28
f 55/189/40 200/101/40 192/124/40 59/189/40
f 199/104/40 51/97/40 46/97/40 191/123/40
f 193/121/28 60/188/28 59/189/28 192/124/28
f 197/106/39 56/188/39 60/188/39 193/121/39
f 52/93/39 198/107/39 194/122/39 45/93/39
f 50/98/37 204/109/37 196/118/37 47/98/37
f 203/112/37 54/99/37 58/99/37 195/117/37
f 75/74/50 207/167/50 206/166/50 76/55/50
f 208/168/50 69/54/50 70/53/50 205/169/50
f 73/174/53 211/163/53 210/162/53 74/179/53
f 212/164/54 71/56/54 72/57/54 209/165/54
f 215/150/55 216/149/55 224/149/55 223/150/55
f 217/132/56 218/135/56 226/135/56 225/132/56
f 183/132/41 184/135/41 218/135/41 217/132/41
f 161/150/41 162/149/41 216/149/41 215/150/41
f 187/129/41 188/127/41 214/127/41 213/129/41
f 158/181/41 183/132/41 217/132/41 220/181/41
f 184/135/41 157/182/41 219/182/41 218/135/41
f 162/185/41 187/129/41 213/129/41 216/185/41
f 222/127/28 223/128/28 224/185/28 221/129/28
f 226/135/20 227/182/20 228/181/20 225/132/20
f 213/129/57 214/127/57 222/127/57 221/129/57
f 220/181/58 217/132/58 225/132/58 228/181/58
f 218/135/59 219/182/59 227/182/59 226/135/59
f 216/185/60 213/129/60 221/129/60 224/185/60
f 214/127/61 215/128/61 223/128/61 222/127/61
f 219/125/62 220/126/62 228/126/62 227/125/62
